<svg xmlns="http://www.w3.org/2000/svg" width="130" height="64" fill="none">
  <g filter="url(#a)">
    <path
      stroke="#F0F6FF"
      stroke-width="2.5"
      d="M48.438 13.125h62.499c8.975 0 16.251 7.275 16.251 16.25v14.039c0 8.95-7.237 16.214-16.186 16.25l-73.552.291A16.25 16.25 0 0 1 22.222 49.55l-.347-.901"
    />
  </g>
  <path
    fill="#F0F6FF"
    fill-rule="evenodd"
    d="M33.933 18.643c.567.183 1.15.283 1.7.283.917 0 1.8-.25 2.517-.8 1.133-.833 1.8-2.233 1.8-3.85v-1.95c0-2.417-1.8-4.917-4.1-5.683l-7.367-2.45c-1.533-.5-3.066-.334-4.216.5-1.08.794-1.737 2.103-1.796 3.624-.014.073-.02.148-.02.225v17.564a7.888 7.888 0 0 0-5.417-2.147c-4.367 0-7.917 3.55-7.917 7.916 0 4.367 3.55 7.917 7.917 7.917s7.917-3.55 7.917-7.917V15.317c.493.382 1.039.683 1.616.876l7.366 2.45Zm-8.2-11.917c.284-.217.65-.317 1.05-.317.284 0 .6.05.917.167l7.367 2.45c1.266.433 2.383 1.983 2.383 3.317v1.95c0 .816-.267 1.466-.767 1.816-.483.35-1.2.417-1.966.15l-7.367-2.45c-1.267-.433-2.383-1.983-2.383-3.316v-1.95c0-.817.266-1.467.766-1.817Zm-8.7 19.733a5.416 5.416 0 0 1 5.417 5.393v.033a5.427 5.427 0 0 1-5.416 5.407 5.427 5.427 0 0 1-5.417-5.417 5.427 5.427 0 0 1 5.417-5.416Z"
    clip-rule="evenodd"
  />
  <mask
    id="b"
    width="45"
    height="18"
    x="52.938"
    y="29.688"
    fill="#000"
    maskUnits="userSpaceOnUse"
  >
    <path fill="#fff" d="M52.938 29.688h45v18h-45z" />
    <path
      d="M60.063 43.95c-.91 0-1.755-.163-2.537-.49a6.448 6.448 0 0 1-2.03-1.4 6.603 6.603 0 0 1-1.348-2.083 7.044 7.044 0 0 1-.472-2.59c0-.921.157-1.779.472-2.572a6.395 6.395 0 0 1 1.348-2.065 6.214 6.214 0 0 1 2.03-1.383 6.32 6.32 0 0 1 2.537-.507c.91 0 1.75.17 2.52.508a5.977 5.977 0 0 1 2.03 1.382 6.032 6.032 0 0 1 1.348 2.065c.327.793.49 1.65.49 2.573 0 .921-.163 1.785-.49 2.59a6.22 6.22 0 0 1-1.347 2.082 6.193 6.193 0 0 1-2.03 1.4c-.77.327-1.61.49-2.52.49Zm0-1.733c.665 0 1.266-.122 1.803-.367.537-.245.998-.59 1.383-1.032.396-.444.694-.957.892-1.54.21-.596.315-1.225.315-1.89 0-.666-.105-1.29-.315-1.873a4.235 4.235 0 0 0-.893-1.523 4.022 4.022 0 0 0-1.382-1.032c-.537-.245-1.138-.367-1.803-.367s-1.265.122-1.802.367a4.203 4.203 0 0 0-1.4 1.032c-.385.432-.682.94-.892 1.523a5.78 5.78 0 0 0-.298 1.873c0 .665.1 1.294.297 1.89.21.583.508 1.096.893 1.54.397.443.863.787 1.4 1.032.537.245 1.137.367 1.802.367Zm2.608-.017 2.643 4.672h-1.978l-2.432-4.2 1.767-.472Zm11.773-2.328v-5.46h1.768v9.276h-1.645v-1.453c-.233.467-.607.858-1.12 1.172a3.308 3.308 0 0 1-1.715.456c-.618 0-1.173-.123-1.663-.368-.478-.245-.851-.624-1.12-1.137-.256-.525-.385-1.185-.385-1.978v-5.968h1.768v5.618c0 .805.18 1.388.542 1.75.362.35.835.525 1.418.525.397 0 .758-.1 1.085-.297.327-.21.583-.496.77-.858.198-.373.297-.8.297-1.277Zm8.388 3.99c-.899 0-1.686-.198-2.363-.595a4.188 4.188 0 0 1-1.557-1.715c-.374-.734-.56-1.586-.56-2.554 0-.922.192-1.739.577-2.45a4.37 4.37 0 0 1 1.575-1.68c.665-.42 1.423-.63 2.275-.63.7 0 1.324.134 1.873.402a3.86 3.86 0 0 1 1.417 1.102c.397.467.682 1.021.858 1.663.174.63.221 1.324.14 2.082h-7.683v-1.172h5.81c-.035-.863-.274-1.534-.718-2.012-.431-.49-1.009-.735-1.732-.735-.525 0-.986.14-1.382.42-.385.268-.689.659-.91 1.172-.21.502-.316 1.114-.316 1.838 0 .723.106 1.347.316 1.872.21.513.513.91.91 1.19.396.28.875.42 1.434.42.665 0 1.214-.17 1.645-.508.444-.338.736-.81.876-1.417h1.75c-.222 1.027-.712 1.837-1.47 2.432-.747.584-1.669.875-2.765.875Zm10.108 0c-.899 0-1.686-.198-2.363-.595a4.188 4.188 0 0 1-1.557-1.715c-.374-.734-.56-1.586-.56-2.554 0-.922.192-1.739.577-2.45a4.37 4.37 0 0 1 1.575-1.68c.665-.42 1.424-.63 2.275-.63.7 0 1.324.134 1.873.402a3.86 3.86 0 0 1 1.417 1.102c.397.467.683 1.021.858 1.663.175.63.221 1.324.14 2.082h-7.683v-1.172h5.81c-.035-.863-.274-1.534-.717-2.012-.432-.49-1.01-.735-1.733-.735-.525 0-.986.14-1.382.42-.385.268-.689.659-.91 1.172-.21.502-.315 1.114-.315 1.838 0 .723.105 1.347.315 1.872.21.513.513.91.91 1.19.396.28.875.42 1.435.42.665 0 1.213-.17 1.645-.508.443-.338.735-.81.875-1.417h1.75c-.222 1.027-.712 1.837-1.47 2.432-.747.584-1.669.875-2.765.875Z" />
  </mask>
  <path
    fill="#F0F6FF"
    d="M60.063 43.95c-.91 0-1.755-.163-2.537-.49a6.448 6.448 0 0 1-2.03-1.4 6.603 6.603 0 0 1-1.348-2.083 7.044 7.044 0 0 1-.472-2.59c0-.921.157-1.779.472-2.572a6.395 6.395 0 0 1 1.348-2.065 6.214 6.214 0 0 1 2.03-1.383 6.32 6.32 0 0 1 2.537-.507c.91 0 1.75.17 2.52.508a5.977 5.977 0 0 1 2.03 1.382 6.032 6.032 0 0 1 1.348 2.065c.327.793.49 1.65.49 2.573 0 .921-.163 1.785-.49 2.59a6.22 6.22 0 0 1-1.347 2.082 6.193 6.193 0 0 1-2.03 1.4c-.77.327-1.61.49-2.52.49Zm0-1.733c.665 0 1.266-.122 1.803-.367.537-.245.998-.59 1.383-1.032.396-.444.694-.957.892-1.54.21-.596.315-1.225.315-1.89 0-.666-.105-1.29-.315-1.873a4.235 4.235 0 0 0-.893-1.523 4.022 4.022 0 0 0-1.382-1.032c-.537-.245-1.138-.367-1.803-.367s-1.265.122-1.802.367a4.203 4.203 0 0 0-1.4 1.032c-.385.432-.682.94-.892 1.523a5.78 5.78 0 0 0-.298 1.873c0 .665.1 1.294.297 1.89.21.583.508 1.096.893 1.54.397.443.863.787 1.4 1.032.537.245 1.137.367 1.802.367Zm2.608-.017 2.643 4.672h-1.978l-2.432-4.2 1.767-.472Zm11.773-2.328v-5.46h1.768v9.276h-1.645v-1.453c-.233.467-.607.858-1.12 1.172a3.308 3.308 0 0 1-1.715.456c-.618 0-1.173-.123-1.663-.368-.478-.245-.851-.624-1.12-1.137-.256-.525-.385-1.185-.385-1.978v-5.968h1.768v5.618c0 .805.18 1.388.542 1.75.362.35.835.525 1.418.525.397 0 .758-.1 1.085-.297.327-.21.583-.496.77-.858.198-.373.297-.8.297-1.277Zm8.388 3.99c-.899 0-1.686-.198-2.363-.595a4.188 4.188 0 0 1-1.557-1.715c-.374-.734-.56-1.586-.56-2.554 0-.922.192-1.739.577-2.45a4.37 4.37 0 0 1 1.575-1.68c.665-.42 1.423-.63 2.275-.63.7 0 1.324.134 1.873.402a3.86 3.86 0 0 1 1.417 1.102c.397.467.682 1.021.858 1.663.174.63.221 1.324.14 2.082h-7.683v-1.172h5.81c-.035-.863-.274-1.534-.718-2.012-.431-.49-1.009-.735-1.732-.735-.525 0-.986.14-1.382.42-.385.268-.689.659-.91 1.172-.21.502-.316 1.114-.316 1.838 0 .723.106 1.347.316 1.872.21.513.513.91.91 1.19.396.28.875.42 1.434.42.665 0 1.214-.17 1.645-.508.444-.338.736-.81.876-1.417h1.75c-.222 1.027-.712 1.837-1.47 2.432-.747.584-1.669.875-2.765.875Zm10.108 0c-.899 0-1.686-.198-2.363-.595a4.188 4.188 0 0 1-1.557-1.715c-.374-.734-.56-1.586-.56-2.554 0-.922.192-1.739.577-2.45a4.37 4.37 0 0 1 1.575-1.68c.665-.42 1.424-.63 2.275-.63.7 0 1.324.134 1.873.402a3.86 3.86 0 0 1 1.417 1.102c.397.467.683 1.021.858 1.663.175.63.221 1.324.14 2.082h-7.683v-1.172h5.81c-.035-.863-.274-1.534-.717-2.012-.432-.49-1.01-.735-1.733-.735-.525 0-.986.14-1.382.42-.385.268-.689.659-.91 1.172-.21.502-.315 1.114-.315 1.838 0 .723.105 1.347.315 1.872.21.513.513.91.91 1.19.396.28.875.42 1.435.42.665 0 1.213-.17 1.645-.508.443-.338.735-.81.875-1.417h1.75c-.222 1.027-.712 1.837-1.47 2.432-.747.584-1.669.875-2.765.875Z"
  />
  <path
    fill="#F0F6FF"
    d="m57.526 43.46-.126.286.006.002.12-.288Zm-2.03-1.4-.225.216.002.003.223-.219Zm-1.348-2.083-.29.114.002.005.288-.118Zm0-5.162-.288-.119-.002.004.29.115Zm1.348-2.065-.223-.219.223.219Zm2.03-1.383.122.288h.002l-.124-.288Zm5.057 0-.125.287.005.002.12-.288Zm2.03 1.383-.225.217.005.004.22-.221Zm1.348 2.065-.29.115.001.004.289-.119Zm0 5.163-.29-.118v.002l.29.115Zm-1.347 2.082-.224-.219-.002.002.225.217Zm-2.03 1.4.122.288.002-.001-.124-.287Zm-.718-1.61-.13-.284.13.284Zm1.383-1.032-.233-.209-.003.004.236.205Zm.892-1.54-.295-.105v.004l.295.1Zm0-3.763-.296.1.002.006.294-.106Zm-.893-1.523-.235.206.005.006.23-.212Zm-1.382-1.032.13-.284-.13.284Zm-3.605 0-.13-.284.13.284Zm-1.4 1.032-.233-.208.233.209Zm-.892 1.523-.294-.106-.002.005.295.101Zm0 3.763-.297.098.003.007.294-.105Zm.892 1.54-.236.204.003.004.233-.209Zm5.81 1.382.272-.154-.119-.21-.234.062.081.302Zm2.643 4.672v.313h.535l-.263-.466-.272.154Zm-1.978 0-.27.157.09.156h.18v-.313Zm-2.432-4.2-.081-.301-.394.105.204.353.27-.157Zm-.84.966a6.204 6.204 0 0 1-2.417-.466l-.241.576c.822.344 1.71.515 2.657.515v-.625Zm-2.412-.464a6.136 6.136 0 0 1-1.933-1.333l-.446.438a6.761 6.761 0 0 0 2.127 1.467l.252-.572Zm-1.93-1.33a6.29 6.29 0 0 1-1.285-1.986l-.577.239a6.912 6.912 0 0 0 1.41 2.18l.451-.434Zm-1.282-1.98a6.731 6.731 0 0 1-.451-2.476h-.625c0 .958.163 1.86.494 2.703l.582-.227Zm-.451-2.476c0-.886.15-1.704.45-2.458l-.58-.23a7.22 7.22 0 0 0-.495 2.688h.625Zm.449-2.454a6.082 6.082 0 0 1 1.281-1.965l-.446-.438a6.704 6.704 0 0 0-1.413 2.165l.578.238Zm1.281-1.965a5.9 5.9 0 0 1 1.93-1.314l-.245-.575a6.526 6.526 0 0 0-2.131 1.451l.446.438Zm1.931-1.315a6.007 6.007 0 0 1 2.413-.482v-.625c-.95 0-1.838.177-2.661.534l.248.573Zm2.413-.482c.87 0 1.668.162 2.395.482l.251-.573a6.508 6.508 0 0 0-2.646-.534v.625Zm2.4.484c.743.31 1.384.747 1.925 1.31l.45-.433a6.29 6.29 0 0 0-2.134-1.454l-.241.577Zm1.93 1.315a5.72 5.72 0 0 1 1.278 1.96l.58-.231a6.346 6.346 0 0 0-1.416-2.171l-.442.442Zm1.28 1.963c.31.753.465 1.57.465 2.454h.625c0-.96-.17-1.858-.513-2.692l-.578.238Zm.465 2.454a6.51 6.51 0 0 1-.467 2.472l.58.235a7.134 7.134 0 0 0 .512-2.707h-.625Zm-.467 2.474a5.907 5.907 0 0 1-1.28 1.98l.446.437a6.534 6.534 0 0 0 1.414-2.186l-.58-.23Zm-1.283 1.981a5.882 5.882 0 0 1-1.929 1.33l.249.574a6.506 6.506 0 0 0 2.13-1.47l-.45-.434Zm-1.927 1.33a6.074 6.074 0 0 1-2.398.465v.625c.949 0 1.83-.17 2.643-.515l-.245-.576Zm-2.398-.643c.705 0 1.35-.13 1.933-.396l-.26-.568c-.49.224-1.046.339-1.672.339v.625Zm1.933-.396a4.335 4.335 0 0 0 1.488-1.112l-.471-.41a3.71 3.71 0 0 1-1.277.954l.26.568Zm1.485-1.108a4.725 4.725 0 0 0 .956-1.648l-.592-.201a4.1 4.1 0 0 1-.83 1.432l.466.417Zm.955-1.645a5.95 5.95 0 0 0 .332-1.993h-.624c0 .631-.1 1.226-.298 1.785l.59.209Zm.332-1.993c0-.699-.11-1.36-.333-1.979l-.588.212c.197.547.297 1.135.297 1.767h.624Zm-.331-1.974a4.546 4.546 0 0 0-.958-1.633l-.46.423c.365.398.641.867.826 1.412l.592-.202Zm-.953-1.626a4.335 4.335 0 0 0-1.488-1.112l-.26.568c.497.227.921.544 1.277.953l.471-.41Zm-1.488-1.112c-.583-.266-1.228-.396-1.933-.396v.625c.627 0 1.182.115 1.673.34l.26-.57Zm-1.933-.396c-.704 0-1.35.13-1.932.396l.26.568c.49-.224 1.047-.339 1.672-.339v-.625Zm-1.932.396a4.513 4.513 0 0 0-1.503 1.108l.466.417c.368-.412.8-.73 1.297-.957l-.26-.568Zm-1.503 1.108a4.913 4.913 0 0 0-.953 1.625l.588.212c.197-.549.475-1.02.831-1.42l-.466-.416Zm-.955 1.63a6.09 6.09 0 0 0-.315 1.974h.626c0-.634.094-1.224.28-1.772l-.591-.202Zm-.315 1.974c0 .696.105 1.36.314 1.988l.593-.197a5.626 5.626 0 0 1-.282-1.791h-.624Zm.317 1.995c.222.618.538 1.165.95 1.64l.472-.41a4.492 4.492 0 0 1-.834-1.441l-.588.211Zm.953 1.643c.425.475.927.845 1.503 1.108l.26-.568a3.888 3.888 0 0 1-1.297-.957l-.466.417Zm1.503 1.108c.583.266 1.228.396 1.932.396v-.625c-.625 0-1.181-.115-1.672-.34l-.26.57Zm4.268.22 2.642 4.672.545-.307-2.643-4.673-.544.308Zm2.915 4.206h-1.978v.625h1.978v-.625Zm-1.707.156-2.433-4.2-.54.313 2.432 4.2.54-.313Zm-2.623-3.742 1.768-.472-.162-.604-1.767.473.161.603Zm13.46-8.561V34.1h-.312v.313h.312Zm1.768 0h.312V34.1h-.312v.313Zm0 9.275V44h.312v-.313h-.312Zm-1.645 0h-.313V44h.313v-.313Zm0-1.453h.312l-.592-.14.28.14Zm-1.12 1.172.159.27.004-.003-.163-.267Zm-3.378.088-.142.278.003.002.14-.28Zm-1.12-1.137-.28.137.003.007.277-.145Zm-.385-7.945V34.1h-.312v.313h.312Zm1.768 0h.312V34.1h-.312v.313Zm.542 7.367-.22.221.003.004.217-.225Zm2.503.227.162.268.007-.005-.17-.263Zm.77-.857-.276-.147-.002.004.278.143Zm.61-1.277v-5.46h-.625v5.46h.625Zm-.313-5.148h1.768V34.1h-1.768v.625Zm1.455-.313v9.276h.625v-9.276H75.9Zm.313 8.963h-1.645V44h1.645v-.625Zm-1.333.313v-1.453h-.625v1.453h.625Zm-.592-1.593c-.203.407-.532.757-1.004 1.046l.327.533c.555-.34.973-.773 1.236-1.3l-.559-.279Zm-1 1.044a2.996 2.996 0 0 1-1.555.411v.625a3.62 3.62 0 0 0 1.874-.498l-.318-.538Zm-1.555.411c-.576 0-1.082-.114-1.523-.334l-.28.559c.54.269 1.142.4 1.803.4v-.625Zm-1.52-.333c-.416-.213-.745-.544-.986-1.004l-.554.29c.296.565.714.993 1.255 1.27l.285-.556Zm-.982-.997c-.23-.47-.353-1.078-.353-1.84h-.625c0 .825.133 1.535.417 2.115l.561-.275Zm-.353-1.84v-5.968h-.625v5.968h.625Zm-.313-5.655h1.768V34.1h-1.768v.625Zm1.455-.313v5.618h.625v-5.617h-.625Zm0 5.618c0 .842.188 1.525.634 1.971l.442-.442c-.277-.277-.45-.76-.45-1.529h-.626Zm.638 1.975c.43.415.984.612 1.635.612v-.624c-.516 0-.906-.153-1.2-.438l-.435.45Zm1.635.612c.451 0 .87-.113 1.247-.342l-.324-.535a1.738 1.738 0 0 1-.923.252v.626Zm1.254-.347c.375-.24.668-.569.878-.977l-.555-.286a1.88 1.88 0 0 1-.661.738l.338.525Zm.877-.973c.225-.424.334-.902.334-1.424h-.625c0 .434-.09.808-.261 1.13l.552.294Zm6.046 1.97-.164.267.006.003.158-.27Zm-1.557-1.715.278-.141-.278.142Zm.017-5.005-.275-.148.275.148Zm1.575-1.68.163.267.004-.002-.167-.264Zm4.147-.227-.137.28.007.004.13-.284Zm1.418 1.102-.244.197.006.006.238-.203Zm.858 1.663-.302.082v.002l.302-.084Zm.14 2.082v.313h.28l.03-.279-.31-.034Zm-7.683 0h-.313v.313h.313v-.313Zm0-1.172v-.313h-.313v.313h.313Zm5.81 0v.313h.325l-.013-.326-.312.013Zm-.718-2.012-.234.206.005.006.23-.212Zm-3.114-.316.178.257.002-.001-.18-.256Zm-.91 1.173-.287-.124-.002.003.288.121Zm0 3.71-.29.116v.002l.29-.118Zm.91 1.19.18-.255-.18.255Zm3.08-.088-.19-.248-.003.003.193.245Zm.875-1.417v-.313h-.25l-.055.243.305.07Zm1.75 0 .305.066.082-.379h-.387v.313Zm-1.47 2.432.192.247-.192-.247Zm-2.765.563c-.851 0-1.583-.187-2.205-.552l-.316.54c.731.428 1.575.637 2.52.637v-.625Zm-2.2-.549a3.875 3.875 0 0 1-1.442-1.59l-.557.283c.398.783.956 1.4 1.672 1.84l.327-.533Zm-1.442-1.59c-.347-.684-.526-1.486-.526-2.413h-.625c0 1.008.195 1.91.594 2.696l.557-.283Zm-.526-2.413c0-.877.183-1.642.54-2.302l-.55-.297c-.413.763-.615 1.632-.615 2.599h.625Zm.54-2.302a4.058 4.058 0 0 1 1.464-1.562l-.328-.533a4.683 4.683 0 0 0-1.686 1.798l.55.297Zm1.467-1.564c.61-.386 1.31-.582 2.108-.582v-.625c-.906 0-1.723.224-2.442.678l.334.529Zm2.108-.582c.66 0 1.235.126 1.735.37l.275-.56c-.597-.293-1.27-.435-2.01-.435v.625Zm1.742.374c.516.237.95.574 1.305 1.014l.486-.391a4.171 4.171 0 0 0-1.53-1.191l-.26.568Zm1.31 1.02c.364.43.63.942.794 1.543l.603-.164a4.57 4.57 0 0 0-.92-1.783l-.477.405Zm.794 1.545c.163.586.209 1.24.13 1.965l.622.067c.085-.791.038-1.526-.15-2.2l-.602.168Zm.442 1.686h-7.683v.625h7.683v-.625Zm-7.37.313v-1.173h-.626v1.172h.626Zm-.313-.86h5.81v-.626h-5.81v.625Zm6.122-.326c-.037-.913-.292-1.663-.8-2.212l-.459.425c.379.408.602 1 .635 1.813l.624-.026Zm-.795-2.206c-.498-.565-1.165-.841-1.967-.841v.625c.644 0 1.132.214 1.498.63l.469-.414Zm-1.967-.841c-.584 0-1.109.157-1.563.477l.36.51c.34-.239.737-.362 1.203-.362v-.625Zm-1.561.476c-.441.308-.778.749-1.018 1.305l.573.248c.203-.47.473-.81.802-1.04l-.357-.513Zm-1.02 1.308c-.23.55-.339 1.207-.339 1.959h.625c0-.695.101-1.264.29-1.717l-.576-.242Zm-.339 1.959c0 .752.11 1.417.337 1.988l.58-.232c-.191-.48-.292-1.062-.292-1.756h-.625Zm.338 1.99c.23.56.567 1.008 1.02 1.327l.36-.51c-.342-.241-.61-.587-.801-1.053l-.579.236Zm1.02 1.327c.456.323 1 .477 1.614.477v-.625c-.505 0-.918-.125-1.254-.362l-.36.51Zm1.614.477c.72 0 1.34-.184 1.838-.574l-.385-.492c-.366.287-.842.441-1.453.441v.625Zm1.835-.571c.508-.388.836-.927.99-1.596l-.609-.14c-.126.544-.382.95-.76 1.24l.379.496Zm.686-1.353h1.75v-.626h-1.75v.626Zm1.444-.379c-.208.962-.662 1.707-1.357 2.253l.385.491c.821-.644 1.347-1.521 1.583-2.612l-.611-.132Zm-1.357 2.252c-.683.534-1.534.809-2.572.809v.625c1.154 0 2.147-.308 2.957-.941l-.385-.493Zm5.173.526-.163.267.005.003.158-.27Zm-1.557-1.715.278-.141-.278.142Zm.017-5.005-.275-.148.275.148Zm1.575-1.68.164.267.003-.002-.167-.264Zm4.148-.227-.138.28.008.004.13-.284Zm1.417 1.102-.243.197.005.006.238-.203Zm.858 1.663-.302.082v.002l.302-.084Zm.14 2.082v.313h.28l.03-.279-.31-.034Zm-7.683 0h-.312v.313h.312v-.313Zm0-1.172v-.313h-.312v.313h.312Zm5.81 0v.313h.326l-.013-.326-.313.013Zm-.717-2.012-.235.206.006.006.229-.212Zm-3.115-.316.178.257.002-.001-.18-.256Zm-.91 1.173-.287-.124-.001.003.288.121Zm0 3.71-.29.116v.002l.29-.118Zm.91 1.19.18-.255-.18.255Zm3.08-.088-.19-.248-.003.003.193.245Zm.875-1.417v-.313h-.249l-.056.243.305.07Zm1.75 0 .305.066.082-.379h-.387v.313Zm-1.47 2.432.192.247-.192-.247Zm-2.765.563c-.851 0-1.583-.187-2.205-.552l-.316.54c.731.428 1.575.637 2.52.637v-.625Zm-2.2-.549a3.875 3.875 0 0 1-1.442-1.59l-.557.283a4.5 4.5 0 0 0 1.673 1.84L90.74 43Zm-1.442-1.59c-.347-.684-.526-1.486-.526-2.413h-.625c0 1.008.195 1.91.594 2.696l.557-.283Zm-.526-2.413c0-.877.183-1.642.54-2.302l-.55-.297c-.413.763-.615 1.632-.615 2.599h.625Zm.54-2.302a4.058 4.058 0 0 1 1.464-1.562l-.327-.533a4.683 4.683 0 0 0-1.687 1.798l.55.297Zm1.467-1.564c.611-.386 1.31-.582 2.108-.582v-.625c-.905 0-1.722.224-2.442.678l.334.529Zm2.108-.582c.66 0 1.236.126 1.735.37l.275-.56c-.597-.293-1.27-.435-2.01-.435v.625Zm1.743.374c.516.237.95.574 1.304 1.014l.487-.391a4.171 4.171 0 0 0-1.531-1.191l-.26.568Zm1.31 1.02c.364.43.63.942.793 1.543l.603-.164a4.57 4.57 0 0 0-.92-1.783l-.477.405Zm.794 1.545c.163.586.208 1.24.13 1.965l.621.067c.086-.791.038-1.526-.15-2.2l-.601.168Zm.44 1.686h-7.682v.625h7.683v-.625Zm-7.37.313v-1.173h-.624v1.172h.625Zm-.312-.86h5.81v-.626h-5.81v.625Zm6.123-.326c-.037-.913-.293-1.663-.801-2.212l-.458.425c.378.408.601 1 .634 1.813l.625-.026Zm-.796-2.206c-.498-.565-1.165-.841-1.967-.841v.625c.645 0 1.133.214 1.498.63l.47-.414Zm-1.967-.841c-.584 0-1.109.157-1.563.477l.361.51c.34-.239.736-.362 1.202-.362v-.625Zm-1.56.476c-.442.308-.779.749-1.02 1.305l.575.248c.203-.47.473-.81.801-1.04l-.357-.513Zm-1.02 1.308c-.23.55-.34 1.207-.34 1.959h.625c0-.695.101-1.264.291-1.717l-.576-.242Zm-.34 1.959c0 .752.11 1.417.338 1.988l.58-.232c-.192-.48-.293-1.062-.293-1.756h-.625Zm.338 1.99c.23.56.568 1.008 1.02 1.327l.36-.51c-.341-.241-.61-.587-.801-1.053l-.579.236Zm1.02 1.327c.457.323 1 .477 1.615.477v-.625c-.506 0-.919-.125-1.255-.362l-.36.51Zm1.615.477c.72 0 1.34-.184 1.838-.574l-.386-.492c-.366.287-.842.441-1.452.441v.625Zm1.834-.571c.508-.388.836-.927.99-1.596l-.609-.14c-.125.544-.381.95-.76 1.24l.38.496Zm.686-1.353h1.75v-.626h-1.75v.626Zm1.444-.379c-.207.962-.661 1.707-1.357 2.253l.386.491c.82-.644 1.347-1.521 1.582-2.612l-.61-.132Zm-1.357 2.252c-.683.534-1.534.809-2.572.809v.625c1.155 0 2.147-.308 2.957-.941l-.385-.493Z"
    mask="url(#b)"
  />
  <defs>
    <filter
      id="a"
      width="110.229"
      height="51.831"
      x="19.459"
      y="11.875"
      color-interpolation-filters="sRGB"
      filterUnits="userSpaceOnUse"
    >
      <feFlood flood-opacity="0" result="BackgroundImageFix" />
      <feColorMatrix
        in="SourceAlpha"
        result="hardAlpha"
        values="0 0 0 0 0 0 0 0 0 0 0 0 0 0 0 0 0 0 127 0"
      />
      <feOffset dy="1.25" />
      <feGaussianBlur stdDeviation=".625" />
      <feComposite in2="hardAlpha" operator="out" />
      <feColorMatrix values="0 0 0 0 0 0 0 0 0 0 0 0 0 0 0 0 0 0 0.25 0" />
      <feBlend in2="BackgroundImageFix" result="effect1_dropShadow_1571_6540" />
      <feBlend
        in="SourceGraphic"
        in2="effect1_dropShadow_1571_6540"
        result="shape"
      />
    </filter>
  </defs>
</svg>